<svg xmlns="http://www.w3.org/2000/svg" viewBox="0 0 64 64" xml:space="preserve" enable-background="new 0 0 64 64"><path d="M60.6 46.1c-.3-.2-6.5-5.2-14.4-5.3l1.2-1.2c6.7-7.2 6.6-18.8 6.5-19.3 0-.5-.4-1-1-1-.3 0-7.1-.1-13.3 3.3-2.1-6.6-6.6-11.1-6.9-11.3-.4-.4-1-.4-1.4 0-.3.2-4.8 4.8-7.1 11.2-6.2-3.4-13-3.3-13.3-3.3-.5 0-1 .4-1 1 0 .5-.2 12.1 6.5 19.3l1.2 1.2c-7.9.1-14.1 5.1-14.4 5.3-.1.3-.2.6-.2.9s.1.6.4.8C3.6 47.9 10 53 18 53c6.7 0 12.2-3.6 14-4.9 1.8 1.3 7.3 4.9 14 4.9 8 0 14.4-5.1 14.6-5.4.2-.2.4-.5.4-.8s-.1-.5-.4-.7zM52 21.2c-.1 2.9-.9 11.5-6 16.9-2.9 3.1-6.1 5.4-9 6.7 2.4-3.3 4-8.9 4-15.4 0-1.7-.3-3.4-.7-5 4.5-2.6 9.6-3.1 11.7-3.2zm-20-7.7c1.9 2.1 7 8.5 7 16 0 9.6-3.4 16.1-6.8 16.4h-.5C28.4 45.5 25 39 25 29.4c0-7.4 5.1-13.8 7-15.9zm-20 7.7c2.1.1 7.1.6 11.6 3.2-.4 1.6-.7 3.3-.7 5 0 6.5 1.6 12.1 4 15.4-2.9-1.3-6.1-3.6-9-6.7-5-5.4-5.8-14-5.9-16.9zM5.7 46.9c2.1-1.4 6.8-4.1 12.3-4.1.7 0 1.5.1 2.2.1 3 2.5 6.2 4.1 9 4.7C26.7 49.1 22.6 51 18 51c-5.5 0-10.2-2.7-12.3-4.1zM46 51c-4.6 0-8.7-1.9-11.1-3.4 2.8-.6 5.9-2.3 9-4.7.7-.1 1.4-.1 2.1-.1 5.5 0 10.2 2.7 12.3 4.1C56.2 48.3 51.5 51 46 51z" fill="#f51e1e" class="fill-000000"></path></svg>