<svg xmlns="http://www.w3.org/2000/svg" xmlns:xlink="http://www.w3.org/1999/xlink" width="213" height="80" viewBox="0 0 213 80">
  <defs>
    <linearGradient id="linear-gradient" x1="0.5" x2="0.5" y2="0.958" gradientUnits="objectBoundingBox">
      <stop offset="0" stop-color="#d5065f"/>
      <stop offset="1" stop-color="#f6d9b5"/>
    </linearGradient>
    <clipPath id="clip-Dictate_logo">
      <rect width="213" height="80"/>
    </clipPath>
  </defs>
  <g id="Dictate_logo" data-name="Dictate logo" clip-path="url(#clip-Dictate_logo)">
    <path id="Path_7" data-name="Path 7" d="M2.4,0V-28h9.28a13.576,13.576,0,0,1,5.43,1.09,14.186,14.186,0,0,1,4.46,3.02,14.186,14.186,0,0,1,3.02,4.46A13.576,13.576,0,0,1,25.68-14a13.576,13.576,0,0,1-1.09,5.43,14.186,14.186,0,0,1-3.02,4.46,14.186,14.186,0,0,1-4.46,3.02A13.576,13.576,0,0,1,11.68,0ZM7.28-4.88h4.4a8.785,8.785,0,0,0,3.51-.71A9.328,9.328,0,0,0,18.1-7.55a9.265,9.265,0,0,0,1.98-2.9A8.778,8.778,0,0,0,20.8-14a8.708,8.708,0,0,0-.72-3.54,9.42,9.42,0,0,0-1.98-2.9,9.277,9.277,0,0,0-2.9-1.97,8.764,8.764,0,0,0-3.52-.71H7.28ZM28.98-20h4.88V0H28.98Zm2.48-2.58a2.528,2.528,0,0,1-1.82-.71,2.376,2.376,0,0,1-.74-1.79,2.385,2.385,0,0,1,.74-1.78,2.485,2.485,0,0,1,1.8-.72,2.451,2.451,0,0,1,1.79.72,2.4,2.4,0,0,1,.73,1.78,2.409,2.409,0,0,1-.72,1.79A2.436,2.436,0,0,1,31.46-22.58ZM50.6-6.02,55-3.64A10.489,10.489,0,0,1,51.54-.62,9.292,9.292,0,0,1,47,.52,9.294,9.294,0,0,1,41.97-.9a10.511,10.511,0,0,1-3.62-3.81A10.569,10.569,0,0,1,37-10a10.766,10.766,0,0,1,.78-4.11,10.773,10.773,0,0,1,2.15-3.36,10,10,0,0,1,3.19-2.27A9.336,9.336,0,0,1,47-20.56a9.292,9.292,0,0,1,4.54,1.14A10.31,10.31,0,0,1,55-16.36L50.6-14a4.918,4.918,0,0,0-1.65-1.24A4.593,4.593,0,0,0,47-15.68a4.514,4.514,0,0,0-2.6.79,5.668,5.668,0,0,0-1.84,2.08A5.934,5.934,0,0,0,41.88-10a5.893,5.893,0,0,0,.68,2.79A5.584,5.584,0,0,0,44.4-5.14a4.555,4.555,0,0,0,2.6.78,4.53,4.53,0,0,0,1.98-.45A5.111,5.111,0,0,0,50.6-6.02Zm18.72-9.1H65.44V0H60.56V-15.12H57.6V-20h2.96v-6.28h4.88V-20h3.88ZM87.56-20h4.88V0H87.56l-.22-2.48A6.5,6.5,0,0,1,85.17-.31a5.969,5.969,0,0,1-3.19.83,10.356,10.356,0,0,1-4.16-.84,10.817,10.817,0,0,1-3.41-2.32,10.88,10.88,0,0,1-2.3-3.42,10.463,10.463,0,0,1-.83-4.16,10.27,10.27,0,0,1,.79-4.02,10.216,10.216,0,0,1,2.21-3.3,10.414,10.414,0,0,1,3.28-2.22,10.015,10.015,0,0,1,4-.8,7.135,7.135,0,0,1,3.55.88,9.15,9.15,0,0,1,2.67,2.24ZM81.86-4.18a4.951,4.951,0,0,0,2.76-.78A5.389,5.389,0,0,0,86.5-7.07,6.341,6.341,0,0,0,87.18-10a6.385,6.385,0,0,0-.68-2.95,5.362,5.362,0,0,0-1.89-2.11,4.965,4.965,0,0,0-2.75-.78,5.214,5.214,0,0,0-2.81.79,5.841,5.841,0,0,0-2.02,2.11A5.846,5.846,0,0,0,76.28-10a5.786,5.786,0,0,0,.76,2.94,5.841,5.841,0,0,0,2.03,2.1A5.229,5.229,0,0,0,81.86-4.18Zm25.3-10.94h-3.88V0H98.4V-15.12H95.44V-20H98.4v-6.28h4.88V-20h3.88ZM119.12.52A9.294,9.294,0,0,1,114.09-.9a10.487,10.487,0,0,1-3.62-3.82,10.624,10.624,0,0,1-1.35-5.3,10.713,10.713,0,0,1,.78-4.09,10.773,10.773,0,0,1,2.15-3.36,10,10,0,0,1,3.19-2.27,9.336,9.336,0,0,1,3.88-.82,9.339,9.339,0,0,1,4.29.99,9.866,9.866,0,0,1,3.31,2.71,11.105,11.105,0,0,1,1.98,3.92,11.062,11.062,0,0,1,.28,4.6H114.36a5.827,5.827,0,0,0,.92,2.01,4.751,4.751,0,0,0,1.62,1.42,4.757,4.757,0,0,0,2.22.55,4.307,4.307,0,0,0,2.33-.61,5.354,5.354,0,0,0,1.75-1.71l4.98,1.16a10.619,10.619,0,0,1-3.64,4.35A9.247,9.247,0,0,1,119.12.52ZM114.2-12h9.84a5.219,5.219,0,0,0-.93-2.17,5.414,5.414,0,0,0-1.75-1.55,4.525,4.525,0,0,0-2.24-.58,4.475,4.475,0,0,0-2.22.57,5.375,5.375,0,0,0-1.73,1.54A5.659,5.659,0,0,0,114.2-12Z" transform="translate(70.088 41.821)"/>
    <path id="Path_8" data-name="Path 8" d="M3.84.18a4.178,4.178,0,0,1-1.629-.3A3.1,3.1,0,0,1,1.017-.984,2.822,2.822,0,0,1,.4-2.31l.9-.15a2.209,2.209,0,0,0,.912,1.317,2.868,2.868,0,0,0,1.662.477,3.056,3.056,0,0,0,1.14-.2,1.833,1.833,0,0,0,.792-.573A1.4,1.4,0,0,0,6.1-2.322a1.257,1.257,0,0,0-.12-.573,1.159,1.159,0,0,0-.318-.393,2.053,2.053,0,0,0-.432-.261A3.673,3.673,0,0,0,4.77-3.72L2.58-4.374a3.853,3.853,0,0,1-.732-.291,2.406,2.406,0,0,1-.585-.426,1.767,1.767,0,0,1-.387-.585,2.007,2.007,0,0,1-.138-.768A2.111,2.111,0,0,1,1.122-7.71a2.463,2.463,0,0,1,1.05-.822A3.724,3.724,0,0,1,3.69-8.814a3.731,3.731,0,0,1,1.545.306,2.928,2.928,0,0,1,1.125.873,3.039,3.039,0,0,1,.588,1.341l-.924.168A2.092,2.092,0,0,0,5.61-7.1a2.144,2.144,0,0,0-.825-.639,2.724,2.724,0,0,0-1.1-.231,2.6,2.6,0,0,0-1.035.2,1.789,1.789,0,0,0-.717.531,1.209,1.209,0,0,0-.264.768,1,1,0,0,0,.243.7,1.7,1.7,0,0,0,.6.414,6.165,6.165,0,0,0,.693.246l1.692.5q.264.072.621.207a2.923,2.923,0,0,1,.7.384,1.981,1.981,0,0,1,.561.651A2.093,2.093,0,0,1,7-2.358a2.369,2.369,0,0,1-.237,1.074,2.249,2.249,0,0,1-.666.8,3.131,3.131,0,0,1-1,.5A4.359,4.359,0,0,1,3.84.18Zm7.308,0A2.487,2.487,0,0,1,9.636-.273,2.8,2.8,0,0,1,8.7-1.5a4.564,4.564,0,0,1-.318-1.743A4.531,4.531,0,0,1,8.7-5a2.746,2.746,0,0,1,.945-1.215,2.581,2.581,0,0,1,1.536-.444,2.57,2.57,0,0,1,1.524.45,2.873,2.873,0,0,1,.975,1.224,4.294,4.294,0,0,1,.339,1.74A4.277,4.277,0,0,1,13.68-1.5,2.9,2.9,0,0,1,12.7-.273,2.616,2.616,0,0,1,11.148.18ZM8.232,2.88V-6.48h.792V-1.6h.1V2.88ZM11.058-.642a1.811,1.811,0,0,0,1.128-.342,2.059,2.059,0,0,0,.675-.933,3.712,3.712,0,0,0,.225-1.329,3.714,3.714,0,0,0-.222-1.32,2.032,2.032,0,0,0-.675-.93,1.854,1.854,0,0,0-1.149-.342,1.843,1.843,0,0,0-1.125.33,1.974,1.974,0,0,0-.669.915,3.782,3.782,0,0,0-.222,1.347,3.794,3.794,0,0,0,.222,1.341,2,2,0,0,0,.672.927A1.853,1.853,0,0,0,11.058-.642ZM17.2.18a2.584,2.584,0,0,1-1.227-.264,1.786,1.786,0,0,1-.741-.7,1.915,1.915,0,0,1-.246-.954,1.8,1.8,0,0,1,.213-.9,1.765,1.765,0,0,1,.582-.615,2.883,2.883,0,0,1,.855-.366q.492-.12,1.089-.213T18.891-4q.573-.069,1-.135l-.312.192a2.107,2.107,0,0,0-.372-1.422,1.7,1.7,0,0,0-1.356-.462,2.013,2.013,0,0,0-1.125.3,1.607,1.607,0,0,0-.645.948l-.858-.252a2.292,2.292,0,0,1,.894-1.35,2.936,2.936,0,0,1,1.746-.48,3.156,3.156,0,0,1,1.509.333,1.873,1.873,0,0,1,.879.963,2.172,2.172,0,0,1,.156.63,6.877,6.877,0,0,1,.036.708V0h-.786V-1.626l.228.1A2.568,2.568,0,0,1,18.864-.258,3.068,3.068,0,0,1,17.2.18Zm.1-.762A2.468,2.468,0,0,0,18.378-.8a1.942,1.942,0,0,0,.744-.609,2.056,2.056,0,0,0,.366-.873,3.292,3.292,0,0,0,.078-.687q.006-.375.006-.561l.336.174q-.45.06-.975.12T17.9-3.1a8.86,8.86,0,0,0-.915.186,2.566,2.566,0,0,0-.534.219,1.233,1.233,0,0,0-.423.375.985.985,0,0,0-.165.582,1.145,1.145,0,0,0,.141.546,1.1,1.1,0,0,0,.456.438A1.73,1.73,0,0,0,17.3-.582ZM26.262.18a2.584,2.584,0,0,1-1.227-.264,1.786,1.786,0,0,1-.741-.7,1.915,1.915,0,0,1-.246-.954,1.8,1.8,0,0,1,.213-.9,1.765,1.765,0,0,1,.582-.615,2.883,2.883,0,0,1,.855-.366q.492-.12,1.089-.213T27.957-4q.573-.069,1.005-.135l-.312.192a2.107,2.107,0,0,0-.372-1.422,1.7,1.7,0,0,0-1.356-.462,2.013,2.013,0,0,0-1.125.3,1.607,1.607,0,0,0-.645.948l-.858-.252a2.293,2.293,0,0,1,.894-1.35,2.936,2.936,0,0,1,1.746-.48,3.156,3.156,0,0,1,1.509.333,1.873,1.873,0,0,1,.879.963,2.172,2.172,0,0,1,.156.63,6.877,6.877,0,0,1,.036.708V0h-.786V-1.626l.228.1A2.568,2.568,0,0,1,27.93-.258,3.068,3.068,0,0,1,26.262.18Zm.1-.762A2.468,2.468,0,0,0,27.444-.8a1.942,1.942,0,0,0,.744-.609,2.056,2.056,0,0,0,.366-.873,3.292,3.292,0,0,0,.078-.687q.006-.375.006-.561l.336.174q-.45.06-.975.12T26.967-3.1a8.86,8.86,0,0,0-.915.186,2.566,2.566,0,0,0-.534.219,1.233,1.233,0,0,0-.423.375.985.985,0,0,0-.165.582,1.145,1.145,0,0,0,.141.546,1.1,1.1,0,0,0,.456.438A1.73,1.73,0,0,0,26.364-.582ZM35.754,0V-3.306a4.522,4.522,0,0,0-.1-.993,2.352,2.352,0,0,0-.327-.792,1.546,1.546,0,0,0-.582-.525,1.857,1.857,0,0,0-.867-.186,1.978,1.978,0,0,0-.825.162,1.612,1.612,0,0,0-.6.465,2.1,2.1,0,0,0-.369.735,3.517,3.517,0,0,0-.126.984l-.624-.138a3.639,3.639,0,0,1,.348-1.674,2.411,2.411,0,0,1,.96-1.026,2.79,2.79,0,0,1,1.4-.348,2.647,2.647,0,0,1,1.017.18,2.217,2.217,0,0,1,.738.486,2.515,2.515,0,0,1,.489.7,3.45,3.45,0,0,1,.27.834,4.688,4.688,0,0,1,.084.879V0ZM31.068,0V-6.48h.8v1.6h.09V0Zm9.606.18a2.616,2.616,0,0,1-1.548-.453A2.9,2.9,0,0,1,38.142-1.5,4.277,4.277,0,0,1,37.8-3.246a4.294,4.294,0,0,1,.339-1.74,2.873,2.873,0,0,1,.975-1.224,2.57,2.57,0,0,1,1.524-.45,2.581,2.581,0,0,1,1.536.444A2.746,2.746,0,0,1,43.119-5a4.531,4.531,0,0,1,.321,1.755A4.564,4.564,0,0,1,43.122-1.5a2.8,2.8,0,0,1-.936,1.23A2.487,2.487,0,0,1,40.674.18Zm.09-.822A1.853,1.853,0,0,0,41.9-.978a2,2,0,0,0,.672-.927A3.794,3.794,0,0,0,42.8-3.246a3.782,3.782,0,0,0-.222-1.347,1.974,1.974,0,0,0-.669-.915,1.843,1.843,0,0,0-1.125-.33A1.867,1.867,0,0,0,39.63-5.5a2,2,0,0,0-.675.93,3.76,3.76,0,0,0-.219,1.32,3.712,3.712,0,0,0,.225,1.329,2.059,2.059,0,0,0,.675.933A1.811,1.811,0,0,0,40.764-.642ZM42.8,0V-4.878h-.1V-8.64h.888V0ZM50.67.18a4.178,4.178,0,0,1-1.629-.3,3.1,3.1,0,0,1-1.194-.861,2.822,2.822,0,0,1-.615-1.326l.9-.15a2.209,2.209,0,0,0,.912,1.317,2.868,2.868,0,0,0,1.662.477,3.056,3.056,0,0,0,1.14-.2,1.833,1.833,0,0,0,.792-.573,1.4,1.4,0,0,0,.288-.882,1.257,1.257,0,0,0-.12-.573,1.159,1.159,0,0,0-.318-.393,2.053,2.053,0,0,0-.432-.261A3.673,3.673,0,0,0,51.6-3.72l-2.19-.654a3.852,3.852,0,0,1-.732-.291,2.406,2.406,0,0,1-.585-.426,1.767,1.767,0,0,1-.387-.585,2.008,2.008,0,0,1-.138-.768,2.111,2.111,0,0,1,.384-1.266A2.463,2.463,0,0,1,49-8.532a3.724,3.724,0,0,1,1.518-.282,3.731,3.731,0,0,1,1.545.306,2.928,2.928,0,0,1,1.125.873,3.039,3.039,0,0,1,.588,1.341l-.924.168A2.092,2.092,0,0,0,52.44-7.1a2.144,2.144,0,0,0-.825-.639,2.724,2.724,0,0,0-1.1-.231,2.6,2.6,0,0,0-1.035.2,1.789,1.789,0,0,0-.717.531,1.209,1.209,0,0,0-.264.768,1,1,0,0,0,.243.7,1.7,1.7,0,0,0,.6.414,6.165,6.165,0,0,0,.693.246l1.692.5q.264.072.621.207a2.923,2.923,0,0,1,.7.384,1.981,1.981,0,0,1,.561.651,2.093,2.093,0,0,1,.222,1.02,2.369,2.369,0,0,1-.237,1.074,2.249,2.249,0,0,1-.666.8,3.131,3.131,0,0,1-1,.5A4.359,4.359,0,0,1,50.67.18Zm6.252,0a2.584,2.584,0,0,1-1.227-.264,1.786,1.786,0,0,1-.741-.7,1.915,1.915,0,0,1-.246-.954,1.8,1.8,0,0,1,.213-.9,1.765,1.765,0,0,1,.582-.615,2.883,2.883,0,0,1,.855-.366q.492-.12,1.089-.213T58.617-4q.573-.069,1.005-.135l-.312.192a2.107,2.107,0,0,0-.372-1.422,1.7,1.7,0,0,0-1.356-.462,2.013,2.013,0,0,0-1.125.3,1.607,1.607,0,0,0-.645.948l-.858-.252a2.292,2.292,0,0,1,.894-1.35,2.936,2.936,0,0,1,1.746-.48,3.156,3.156,0,0,1,1.509.333,1.873,1.873,0,0,1,.879.963,2.172,2.172,0,0,1,.156.63,6.877,6.877,0,0,1,.036.708V0h-.786V-1.626l.228.1A2.568,2.568,0,0,1,58.59-.258,3.068,3.068,0,0,1,56.922.18Zm.1-.762A2.468,2.468,0,0,0,58.1-.8a1.942,1.942,0,0,0,.744-.609,2.056,2.056,0,0,0,.366-.873,3.292,3.292,0,0,0,.078-.687q.006-.375.006-.561l.336.174q-.45.06-.975.12T57.627-3.1a8.859,8.859,0,0,0-.915.186,2.566,2.566,0,0,0-.534.219,1.233,1.233,0,0,0-.423.375.985.985,0,0,0-.165.582,1.145,1.145,0,0,0,.141.546,1.1,1.1,0,0,0,.456.438A1.73,1.73,0,0,0,57.024-.582ZM61.854,0V-8.82h.882V0Zm5.388.18a3,3,0,0,1-1.65-.438,2.85,2.85,0,0,1-1.05-1.212,4.108,4.108,0,0,1-.366-1.776,4.057,4.057,0,0,1,.372-1.788,2.83,2.83,0,0,1,1.059-1.2,3.024,3.024,0,0,1,1.635-.429,3.038,3.038,0,0,1,1.659.435,2.807,2.807,0,0,1,1.05,1.206,4.117,4.117,0,0,1,.363,1.773,4.133,4.133,0,0,1-.366,1.791,2.8,2.8,0,0,1-1.056,1.2A3.046,3.046,0,0,1,67.242.18Zm0-.846a1.866,1.866,0,0,0,1.608-.717,3.064,3.064,0,0,0,.528-1.863,3.011,3.011,0,0,0-.531-1.872,1.891,1.891,0,0,0-1.605-.7,2.052,2.052,0,0,0-1.2.327,1.951,1.951,0,0,0-.7.906,3.584,3.584,0,0,0-.231,1.335,3,3,0,0,0,.54,1.875A1.879,1.879,0,0,0,67.242-.666ZM76.314,0V-3.306a4.522,4.522,0,0,0-.1-.993,2.352,2.352,0,0,0-.327-.792,1.546,1.546,0,0,0-.582-.525,1.857,1.857,0,0,0-.867-.186,1.978,1.978,0,0,0-.825.162,1.612,1.612,0,0,0-.6.465,2.1,2.1,0,0,0-.369.735,3.517,3.517,0,0,0-.126.984l-.624-.138a3.639,3.639,0,0,1,.348-1.674,2.411,2.411,0,0,1,.96-1.026,2.79,2.79,0,0,1,1.4-.348,2.647,2.647,0,0,1,1.017.18,2.217,2.217,0,0,1,.738.486,2.515,2.515,0,0,1,.489.7,3.45,3.45,0,0,1,.27.834,4.688,4.688,0,0,1,.084.879V0ZM71.628,0V-6.48h.8v1.6h.09V0ZM83.016,0l-2.5-8.64h.918L83.46-1.506l2.01-7.128.924-.006,2.022,7.134,2.01-7.134h.924L88.86,0h-.888l-2.04-7.086L83.9,0ZM94.374.18a3,3,0,0,1-1.65-.438,2.85,2.85,0,0,1-1.05-1.212,4.108,4.108,0,0,1-.366-1.776,4.057,4.057,0,0,1,.372-1.788,2.83,2.83,0,0,1,1.059-1.2,3.024,3.024,0,0,1,1.635-.429,3.038,3.038,0,0,1,1.659.435,2.807,2.807,0,0,1,1.05,1.206,4.117,4.117,0,0,1,.363,1.773,4.133,4.133,0,0,1-.366,1.791,2.8,2.8,0,0,1-1.056,1.2A3.046,3.046,0,0,1,94.374.18Zm0-.846a1.866,1.866,0,0,0,1.608-.717,3.064,3.064,0,0,0,.528-1.863,3.011,3.011,0,0,0-.531-1.872,1.891,1.891,0,0,0-1.605-.7,2.052,2.052,0,0,0-1.2.327,1.951,1.951,0,0,0-.7.906,3.584,3.584,0,0,0-.231,1.335,3,3,0,0,0,.54,1.875A1.879,1.879,0,0,0,94.374-.666ZM98.766,0V-6.48h.792v1.56l-.156-.2a2.286,2.286,0,0,1,.282-.531,1.858,1.858,0,0,1,.378-.4,1.749,1.749,0,0,1,.588-.339,2.524,2.524,0,0,1,.678-.138,2.017,2.017,0,0,1,.624.051v.828a2.14,2.14,0,0,0-.774-.042,1.475,1.475,0,0,0-.774.336,1.616,1.616,0,0,0-.486.6,2.614,2.614,0,0,0-.216.744,5.7,5.7,0,0,0-.054.777V0Zm6.72.18a2.616,2.616,0,0,1-1.548-.453,2.9,2.9,0,0,1-.984-1.227,4.277,4.277,0,0,1-.342-1.746,4.294,4.294,0,0,1,.339-1.74,2.873,2.873,0,0,1,.975-1.224,2.57,2.57,0,0,1,1.524-.45,2.581,2.581,0,0,1,1.536.444A2.746,2.746,0,0,1,107.931-5a4.531,4.531,0,0,1,.321,1.755,4.564,4.564,0,0,1-.318,1.743A2.8,2.8,0,0,1,107-.273,2.487,2.487,0,0,1,105.486.18Zm.09-.822a1.853,1.853,0,0,0,1.14-.336,2,2,0,0,0,.672-.927,3.794,3.794,0,0,0,.222-1.341,3.781,3.781,0,0,0-.222-1.347,1.974,1.974,0,0,0-.669-.915,1.843,1.843,0,0,0-1.125-.33,1.867,1.867,0,0,0-1.152.342,2,2,0,0,0-.675.93,3.76,3.76,0,0,0-.219,1.32,3.712,3.712,0,0,0,.225,1.329,2.059,2.059,0,0,0,.675.933A1.811,1.811,0,0,0,105.576-.642ZM107.61,0V-4.878h-.1V-8.64h.888V0Zm2.472,0V-8.64h3.336q.126,0,.285.009a2.555,2.555,0,0,1,.321.039,2.406,2.406,0,0,1,1.149.471,2.35,2.35,0,0,1,.714.927,3.063,3.063,0,0,1,.243,1.236,3.016,3.016,0,0,1-.246,1.23,2.375,2.375,0,0,1-.717.927,2.4,2.4,0,0,1-1.143.471q-.162.024-.321.036t-.285.012h-2.454V0Zm.882-4.122h2.43q.108,0,.252-.012a2.177,2.177,0,0,0,.282-.042,1.493,1.493,0,0,0,.729-.366,1.7,1.7,0,0,0,.426-.642,2.166,2.166,0,0,0,.141-.774,2.19,2.19,0,0,0-.141-.777,1.7,1.7,0,0,0-.426-.645,1.493,1.493,0,0,0-.729-.366,1.876,1.876,0,0,0-.282-.039q-.144-.009-.252-.009h-2.43ZM117.33,0V-6.48h.792v1.56l-.156-.2a2.286,2.286,0,0,1,.282-.531,1.858,1.858,0,0,1,.378-.4,1.749,1.749,0,0,1,.588-.339,2.524,2.524,0,0,1,.678-.138,2.017,2.017,0,0,1,.624.051v.828a2.14,2.14,0,0,0-.774-.042,1.475,1.475,0,0,0-.774.336,1.616,1.616,0,0,0-.486.6,2.614,2.614,0,0,0-.216.744,5.7,5.7,0,0,0-.054.777V0Zm6.948.18a3.105,3.105,0,0,1-1.641-.42,2.844,2.844,0,0,1-1.077-1.182,3.926,3.926,0,0,1-.384-1.788,4.143,4.143,0,0,1,.378-1.836,2.8,2.8,0,0,1,1.065-1.194,3.05,3.05,0,0,1,1.623-.42,2.939,2.939,0,0,1,1.638.441,2.727,2.727,0,0,1,1.026,1.263,4.693,4.693,0,0,1,.318,1.962h-.9v-.312a3.072,3.072,0,0,0-.543-1.9,1.834,1.834,0,0,0-1.515-.642,1.948,1.948,0,0,0-1.6.678,2.977,2.977,0,0,0-.555,1.932,2.912,2.912,0,0,0,.555,1.9,1.924,1.924,0,0,0,1.575.675,2.263,2.263,0,0,0,1.215-.321,2.211,2.211,0,0,0,.819-.927l.822.318a2.927,2.927,0,0,1-1.131,1.311A3.13,3.13,0,0,1,124.278.18ZM121.8-2.994v-.738h4.95v.738ZM130.968.174a3.3,3.3,0,0,1-1.875-.492,2.047,2.047,0,0,1-.9-1.368l.9-.15a1.453,1.453,0,0,0,.657.879,2.315,2.315,0,0,0,1.269.327,1.947,1.947,0,0,0,1.164-.309.986.986,0,0,0,.426-.843.822.822,0,0,0-.135-.489,1.215,1.215,0,0,0-.549-.351,12.821,12.821,0,0,0-1.236-.384,8.347,8.347,0,0,1-1.38-.48,1.723,1.723,0,0,1-.708-.555,1.359,1.359,0,0,1-.21-.771,1.573,1.573,0,0,1,.312-.969,2.026,2.026,0,0,1,.864-.648,3.307,3.307,0,0,1,1.284-.231,3.435,3.435,0,0,1,1.311.237,2.337,2.337,0,0,1,.933.663,1.852,1.852,0,0,1,.42.99l-.9.162a1.309,1.309,0,0,0-.567-.9,2.127,2.127,0,0,0-1.209-.345,1.94,1.94,0,0,0-1.122.261.848.848,0,0,0-.432.741.657.657,0,0,0,.156.441,1.448,1.448,0,0,0,.567.345,10.131,10.131,0,0,0,1.173.354,7.4,7.4,0,0,1,1.4.48,1.738,1.738,0,0,1,.726.594,1.555,1.555,0,0,1,.216.846,1.722,1.722,0,0,1-.681,1.443A3,3,0,0,1,130.968.174Zm6.3,0a3.3,3.3,0,0,1-1.875-.492,2.047,2.047,0,0,1-.9-1.368l.9-.15a1.453,1.453,0,0,0,.657.879,2.315,2.315,0,0,0,1.269.327,1.947,1.947,0,0,0,1.164-.309.986.986,0,0,0,.426-.843.822.822,0,0,0-.135-.489,1.215,1.215,0,0,0-.549-.351,12.821,12.821,0,0,0-1.236-.384,8.347,8.347,0,0,1-1.38-.48,1.723,1.723,0,0,1-.708-.555,1.359,1.359,0,0,1-.21-.771A1.573,1.573,0,0,1,135-5.781a2.026,2.026,0,0,1,.864-.648,3.307,3.307,0,0,1,1.284-.231,3.435,3.435,0,0,1,1.311.237,2.337,2.337,0,0,1,.933.663,1.852,1.852,0,0,1,.42.99l-.9.162a1.309,1.309,0,0,0-.567-.9,2.127,2.127,0,0,0-1.209-.345,1.94,1.94,0,0,0-1.122.261.848.848,0,0,0-.432.741.657.657,0,0,0,.156.441,1.448,1.448,0,0,0,.567.345,10.131,10.131,0,0,0,1.173.354,7.4,7.4,0,0,1,1.4.48,1.738,1.738,0,0,1,.726.594,1.555,1.555,0,0,1,.216.846,1.722,1.722,0,0,1-.681,1.443A3,3,0,0,1,137.268.174Z" transform="translate(72.088 58.821)" fill="#5e5e5e"/>
    <path id="Path_6" data-name="Path 6" d="M-860.979-412.64h0c-2.519-2.364-4.383-5.83-5.538-10.3a44.006,44.006,0,0,1-1.282-9.817l-.018.008-.018.008c-.118-5.2.819-8.931,2.864-11.416a11.789,11.789,0,0,1,5.646-3.5c1.351-.483,2.417-.864,2.727-1.7.238-.643.015-1.525-.7-2.775a2.864,2.864,0,0,1-1.027-1.906,1.6,1.6,0,0,1,.7-1.1c.276-.238.494-.426.323-.662-.562-.787-.279-1.071-.05-1.3.174-.175.325-.325.05-.648-1.474-.524-2.221-1.013-2.282-1.493s.57-.921,1.24-1.375c.645-.437,1.311-.888,1.367-1.421a.936.936,0,0,0-.324-.747c-4.6-1.9-7.694-3.712-9.467-5.529a8.609,8.609,0,0,1-2.3-4.391c-.559-2.123-1.086-4.129-5.98-6.552,1.721,8.322.166,15.165-1.338,21.782-2.2,9.665-4.093,18.012,4.785,28.381l3.1,4.271a52.792,52.792,0,0,1-14.97-2.161,42.287,42.287,0,0,1-10.266-4.636,30.025,30.025,0,0,1-7.981-6.958A30.4,30.4,0,0,1-908.5-448.4a30.3,30.3,0,0,1-2.5-12.1,30.31,30.31,0,0,1,2.4-11.872,30.4,30.4,0,0,1,6.536-9.695,30.4,30.4,0,0,1,9.695-6.536A30.309,30.309,0,0,1-880.5-491a30.307,30.307,0,0,1,11.872,2.4,30.4,30.4,0,0,1,9.695,6.536,30.4,30.4,0,0,1,6.536,9.695A30.308,30.308,0,0,1-850-460.5c0,.162,0,.321,0,.482.465,12.615-2.609,19.666-5.583,26.484-2.508,5.751-5.1,11.7-5.393,20.891Z" transform="translate(912.088 491.82)" fill="url(#linear-gradient)"/>
    <path id="Path_4" data-name="Path 4" d="M967.255,519.1c1.276-.949.76-1.658-.688-1.109-4.266-.125-4.859,3.375-4.859,3.375S964.88,518.471,967.255,519.1Z" transform="translate(-922.912 -497.179)" fill="#f64b67"/>
    <path id="Path_5" data-name="Path 5" d="M966.47,522.9a1.722,1.722,0,0,1,0,1.512c-.9.3-3.594-.314-3.594-.314A6.136,6.136,0,0,1,966.47,522.9Z" transform="translate(-978.215 -375.361) rotate(-7)" fill="#f64b67"/>
  </g>
</svg>
