<svg xmlns="http://www.w3.org/2000/svg" xmlns:xlink="http://www.w3.org/1999/xlink" width="59" height="60" viewBox="0 0 59 60"><defs><clipPath id="clip-Detox_therapy_Dictate"><rect width="59" height="60"></rect></clipPath></defs><g id="Detox_therapy_Dictate" data-name="Detox therapy Dictate" clip-path="url(#clip-Detox_therapy_Dictate)"><path id="Ellipse_1" data-name="Ellipse 1" d="M6.765,2a4.765,4.765,0,1,0,4.765,4.765A4.771,4.771,0,0,0,6.765,2m0-2A6.765,6.765,0,1,1,0,6.765,6.765,6.765,0,0,1,6.765,0Z" transform="translate(8.39 2)"></path><path id="Ellipse_2" data-name="Ellipse 2" d="M6.765,2a4.765,4.765,0,1,0,4.765,4.765A4.771,4.771,0,0,0,6.765,2m0-2A6.765,6.765,0,1,1,0,6.765,6.765,6.765,0,0,1,6.765,0Z" transform="translate(44.015 29.062)"></path><path id="Path_1" data-name="Path 1" d="M970.189,566.186H951.127a1,1,0,0,1-1-1V540.538a1,1,0,0,1,1-1h28.184c.734-.112,4.2-.363,7.368,4.121,2.632,3.723,6.473,8.1,7.558,9.324h10.575a1,1,0,0,1,0,2H993.79a1,1,0,0,1-.742-.33c-.2-.218-4.857-5.391-8-9.839-2.685-3.8-5.4-3.306-5.429-3.3a1,1,0,0,1-.221.025H952.127v22.648h17.062V548.717a1,1,0,0,1,2,0v16.469A1,1,0,0,1,970.189,566.186Z" transform="translate(-948.673 -507.213)"></path><path id="Path_2" data-name="Path 2" d="M971.115,547.193H959.759a1,1,0,0,1,0-2h11.356a1,1,0,0,1,0,2Z" transform="translate(-937.839 -499.655)"></path><path id="Path_3" data-name="Path 3" d="M951.133,549.632a1,1,0,0,1-.938-1.347l5.488-14.824a1,1,0,0,1,1-.651c7.272.45,17.083,4.557,23.829,7.606a1,1,0,0,1-.824,1.822c-6.372-2.881-15.519-6.724-22.392-7.375l-5.225,14.115A1,1,0,0,1,951.133,549.632Z" transform="translate(-948.665 -515.2)"></path></g></svg>