<svg xmlns="http://www.w3.org/2000/svg" xmlns:xlink="http://www.w3.org/1999/xlink" width="62" height="62" viewBox="0 0 62 62"><defs><clipPath id="clip-Man_Face"><rect width="62" height="62"></rect></clipPath></defs><g id="Man_Face" data-name="Man Face" clip-path="url(#clip-Man_Face)"><path id="Path_21" data-name="Path 21" d="M17.064,54.257a19.972,19.972,0,0,1-3.189-4.439,4.5,4.5,0,0,1-5.9-1.867L3.856,40.522.508,35.115H.5v-35h12V5.059a33.226,33.226,0,0,1,4.614-2.4A33.64,33.64,0,0,1,29.718.005c.2,0,.409-.005.612-.005A33.62,33.62,0,0,1,42.409,2.22,32.923,32.923,0,0,1,48.656,5.41V.115h12v35h-.009l-3.353,5.413-4.114,7.422a4.5,4.5,0,0,1-6.118,1.754q-.08-.045-.158-.092l.118.392a20.051,20.051,0,0,1-3.088,4.252,18.334,18.334,0,0,1-26.87,0ZM30.5,58.115a17.689,17.689,0,0,0,15.293-9.459,4.508,4.508,0,0,1-.484-5.068L48.684,37.5H48.63a4,4,0,0,1-4-4V25.155h.026V22.507A24.738,24.738,0,0,0,30.445,18c-.173,0-.347,0-.521.005A24.969,24.969,0,0,0,16.637,22.2a.408.408,0,0,1-.139.256v2.7h.026V33.5a4,4,0,0,1-4,4H12.47l3.376,6.091a4.509,4.509,0,0,1-.578,5.177A17.7,17.7,0,0,0,30.5,58.115Zm16.51-13.469a2.5,2.5,0,1,0,4.373,2.424l4.158-7.5h0l3.118-5.624V14.116h0v-12h-8v12h-.021c-.576,1.735-3.489,2.9-4.053,7h.074v5H46.63V33.6a2,2,0,0,0,4,0V25.154h2v7.931h0s0,.027,0,.078V33.5A4,4,0,0,1,52,35.645a5.93,5.93,0,0,1-.413.733ZM9.772,47.069a2.5,2.5,0,1,0,4.373-2.425L9.566,36.383a5.921,5.921,0,0,1-.414-.734A4,4,0,0,1,8.524,33.5v-.362c0-.034,0-.052,0-.052h0V25.153h2V33.6a2,2,0,1,0,4,0V26.115H14.5v-5h.074c-.564-4.1-3.477-5.265-4.053-7H10.5v-12h-8V33.944l3.118,5.624h0ZM40.538,18.221a26.09,26.09,0,0,1,4.179,2.4c.761-5.029,3.746-6.483,3.939-6.572V7.33A32.753,32.753,0,0,0,42.6,4.245a24.272,24.272,0,0,1-4.2,8.345c-.1.13-.207.265-.319.4a24.171,24.171,0,0,1-3.355,3.4A24.471,24.471,0,0,1,40.538,18.221ZM16.4,20.386a26.546,26.546,0,0,1,2.923-1.723A24.386,24.386,0,0,1,29.9,16.006c.17,0,.343-.005.514-.005q.81,0,1.614.053a24.5,24.5,0,0,0,4.48-4.29c.1-.126.211-.264.324-.409a24.6,24.6,0,0,0,4.041-7.724A34.134,34.134,0,0,0,30.375,2c-.206,0-.416,0-.622.005A33.747,33.747,0,0,0,12.5,7.027v7.024C12.689,14.139,15.582,15.548,16.4,20.386Zm12.1,21.73v-6h2v4h4v2Z" transform="translate(0.423 0.942)"></path><path id="Path_18" data-name="Path 18" d="M809.188,520.547l-.092,0a2.975,2.975,0,0,1-2.311-1.389,5.364,5.364,0,0,1-.824-3.147l2,.04c-.033,1.672.7,2.479,1.211,2.5h.017c.526,0,1.126-.894,1.219-2.572l2,.109a6,6,0,0,1-.98,3.237A2.783,2.783,0,0,1,809.188,520.547Z" transform="translate(-787.078 -480.942)"></path><path id="Path_19" data-name="Path 19" d="M809.188,520.547l-.092,0a2.975,2.975,0,0,1-2.311-1.389,5.364,5.364,0,0,1-.824-3.147l2,.04c-.033,1.672.7,2.479,1.211,2.5h.017c.526,0,1.126-.894,1.219-2.572l2,.109a6,6,0,0,1-.98,3.237A2.783,2.783,0,0,1,809.188,520.547Z" transform="translate(-769.078 -480.942)"></path><path id="Path_20" data-name="Path 20" d="M31.3,51.057c-4.8,0-8.342-4.457-8.491-4.648a1,1,0,0,1,1.574-1.233c.061.077,3.168,3.938,7,3.881,2.2-.032,4.29-1.365,6.215-3.961A1,1,0,1,1,39.2,46.286c-2.319,3.128-4.945,4.733-7.8,4.77Z"></path></g></svg>