<svg xmlns="http://www.w3.org/2000/svg" xmlns:xlink="http://www.w3.org/1999/xlink" width="55" height="35" viewBox="0 0 55 35"><defs><clipPath id="clip-Leaves"><rect width="55" height="35"></rect></clipPath></defs><g id="Leaves" clip-path="url(#clip-Leaves)"><path id="Path_1" data-name="Path 1" d="M34.106,31.007a22.544,22.544,0,0,1-5.517-2.482,4.006,4.006,0,0,1-3.809-.011,22.305,22.305,0,0,1-7.923,3.041,19.522,19.522,0,0,1-8.752-.548A22.006,22.006,0,0,1,0,26.627H0l0,0a22.047,22.047,0,0,1,8.074-4.156,20.743,20.743,0,0,1,5.462-.77,19.735,19.735,0,0,1-3.767-5.051A21.914,21.914,0,0,1,7.295,7.771H7.3a21.98,21.98,0,0,1,8.6,2.92,20.759,20.759,0,0,1,4.441,3.49l-2.128,2.847a13.121,13.121,0,0,0-2.675-2.374,10.5,10.5,0,0,0-3.635-1.6A12.07,12.07,0,0,0,13.537,17a12.57,12.57,0,0,0,7.522,5.465,4.668,4.668,0,0,0,1.452.24,4.262,4.262,0,0,0,.99-.116q.093-.123.2-.239a21.169,21.169,0,0,1-1.737-5.5,19.521,19.521,0,0,1,.547-8.752A21.985,21.985,0,0,1,26.888,0h0l0,0a22.052,22.052,0,0,1,4.155,8.074,20.484,20.484,0,0,1,.52,8.747,22.167,22.167,0,0,1-1.712,5.65,1.693,1.693,0,0,0,.251.094,4.257,4.257,0,0,0,1.086.14,4.663,4.663,0,0,0,1.452-.24A12.57,12.57,0,0,0,40.166,17a12.021,12.021,0,0,0,1.636-3.95,10.5,10.5,0,0,0-3.635,1.6,13.145,13.145,0,0,0-2.675,2.374l-2.129-2.847a20.8,20.8,0,0,1,4.441-3.49,21.985,21.985,0,0,1,8.6-2.92h.006a21.914,21.914,0,0,1-2.479,8.874A19.715,19.715,0,0,1,40.156,21.7a20.353,20.353,0,0,1,2.669.244,24.653,24.653,0,0,1,10.687,4.68h0a23.873,23.873,0,0,1-10.655,4.927,19.285,19.285,0,0,1-3.172.263A19.825,19.825,0,0,1,34.106,31.007Zm2.57-5.528A10.539,10.539,0,0,0,33,26.984a12.152,12.152,0,0,0,3.978,1.566,12.588,12.588,0,0,0,9.327-1.717,15.723,15.723,0,0,0-6.842-1.651A12.965,12.965,0,0,0,36.677,25.479Zm-26,0A10.539,10.539,0,0,0,7,26.984a12.152,12.152,0,0,0,3.978,1.566,12.587,12.587,0,0,0,9.327-1.717,15.723,15.723,0,0,0-6.842-1.651A12.965,12.965,0,0,0,10.677,25.479Zm14.287-14.5a12.593,12.593,0,0,0,1.718,9.327,14.7,14.7,0,0,0,1.353-9.629A10.528,10.528,0,0,0,26.53,7,12.118,12.118,0,0,0,24.963,10.979ZM36.7,5.5A1.5,1.5,0,1,1,38.2,7,1.5,1.5,0,0,1,36.7,5.5Zm-22,0A1.5,1.5,0,1,1,16.2,7,1.5,1.5,0,0,1,14.7,5.5Z" transform="translate(0.744 1.591)" fill="#f64b67"></path></g></svg>