<svg xmlns="http://www.w3.org/2000/svg" xmlns:xlink="http://www.w3.org/1999/xlink" width="78" height="71" viewBox="0 0 78 71"><defs><clipPath id="clip-Frequency_cavitation_Dictate"><rect width="78" height="71"></rect></clipPath></defs><g id="Frequency_cavitation_Dictate" data-name="Frequency cavitation Dictate" clip-path="url(#clip-Frequency_cavitation_Dictate)"><path id="Ellipse_1" data-name="Ellipse 1" d="M13,2A11,11,0,0,0,5.222,20.778,11,11,0,1,0,20.778,5.222,10.928,10.928,0,0,0,13,2m0-2A13,13,0,1,1,0,13,13,13,0,0,1,13,0Z" transform="translate(1 1)"></path><path id="Path_1" data-name="Path 1" d="M948.752,520.9H943.3v-2h4.451v-3.23H943.3v-2h5.451a1,1,0,0,1,1,1v5.23A1,1,0,0,1,948.752,520.9Z" transform="translate(-918 -503)"></path><path id="Rectangle_1" data-name="Rectangle 1" d="M2,2V12H4V2H2M0,0H6V14H0Z" transform="translate(30 7)"></path><path id="Path_2" data-name="Path 2" d="M989.606,527.676a1,1,0,0,1-.211-1.977,3.687,3.687,0,0,0,2.731-2.179,4.875,4.875,0,0,0,.413-1.709V512.4a4.8,4.8,0,0,0-.783-1.744,4.275,4.275,0,0,0-3.67-1.694c-4.115-.01-20.206.179-29.433.293l-.164,0c-2.494.031-4.05,2.658-4.429,3.377v8.143a8.848,8.848,0,0,0,.878,2.568,3.885,3.885,0,0,0,3.514,2.327h.02c4.583-.022,14.347,0,14.445,0a1,1,0,0,1,0,2h0c-.1,0-9.855-.022-14.431,0h-.031a5.835,5.835,0,0,1-5.3-3.432,10.726,10.726,0,0,1-1.079-3.254,1,1,0,0,1-.009-.133V512.4a1,1,0,0,1,.091-.416c.087-.191,2.185-4.674,6.314-4.725l.164,0c9.232-.114,25.336-.3,29.462-.293a6.2,6.2,0,0,1,5.343,2.6,6.565,6.565,0,0,1,1.094,2.6,1,1,0,0,1,.011.147v9.508a6.762,6.762,0,0,1-.586,2.514,5.661,5.661,0,0,1-4.133,3.32A1,1,0,0,1,989.606,527.676Z" transform="translate(-918 -503)"></path><path id="Rectangle_2" data-name="Rectangle 2" d="M6.5,2A4.505,4.505,0,0,0,2,6.5v37a4.5,4.5,0,0,0,9,0V6.5A4.505,4.505,0,0,0,6.5,2m0-2A6.5,6.5,0,0,1,13,6.5v37a6.5,6.5,0,0,1-13,0V6.5A6.5,6.5,0,0,1,6.5,0Z" transform="translate(57 19)"></path><path id="Path_3" data-name="Path 3" d="M9.5.313A24.732,24.732,0,0,0,2,1.353V7H17V1.353A24.732,24.732,0,0,0,9.5.313m0-2A23.707,23.707,0,0,1,19,0V9H0V0A23.707,23.707,0,0,1,9.5-1.687Z" transform="translate(31 48)"></path><path id="Rectangle_3" data-name="Rectangle 3" d="M2,2V6H12V2H2M0,0H14V8H0Z" transform="translate(34 61)"></path><path id="Union_1" data-name="Union 1" d="M-1,0H1V5.573H-1ZM4,0H6V5.573H4Z" transform="translate(37.5 56.178)"></path><path id="Path_6" data-name="Path 6" d="M941.695,559.825h-.019l-16.1-.3a1,1,0,0,1-.981-1V543.742a1,1,0,0,1,1-1h4.6a1,1,0,0,1,1,1V554h5.21V543.742a1,1,0,0,1,1-1h4.29a1,1,0,0,1,1,1v15.083a1,1,0,0,1-1,1Zm-15.1-2.282,14.1.263V544.742H938.4V555a1,1,0,0,1-1,1h-7.21a1,1,0,0,1-1-1V544.742h-2.6Z" transform="translate(-918.095 -502.558)"></path><path id="Rectangle_4" data-name="Rectangle 4" d="M2,2V6H12V2H2M0,0H14V8H0Z" transform="translate(9 61)"></path><path id="Union_2" data-name="Union 2" d="M-1,0H1V5.573H-1ZM4,0H6V5.573H4Z" transform="translate(13.5 56.178)"></path></g></svg>