<svg xmlns="http://www.w3.org/2000/svg" xmlns:xlink="http://www.w3.org/1999/xlink" width="85" height="66" viewBox="0 0 85 66"><defs><clipPath id="clip-Vacum_suction_Therapy"><rect width="85" height="66"></rect></clipPath></defs><g id="Vacum_suction_Therapy" data-name="Vacum suction Therapy" clip-path="url(#clip-Vacum_suction_Therapy)"><path id="Path_7" data-name="Path 7" d="M8,2a6,6,0,1,0,6,6A6.007,6.007,0,0,0,8,2M8,0A8,8,0,1,1,0,8,8,8,0,0,1,8,0Z" transform="translate(1 15)"></path><path id="Path_8" data-name="Path 8" d="M5,2A3,3,0,0,0,2,5v5H9V5A3,3,0,0,0,6,2H5M5,0H6a5,5,0,0,1,5,5v7H0V5A5,5,0,0,1,5,0Z" transform="translate(23 8)"></path><path id="Path_1" data-name="Path 1" d="M952.315,513.545a1,1,0,0,1-1-1v-2.113a1,1,0,0,1,2,0v2.113A1,1,0,0,1,952.315,513.545Z" transform="translate(-923.815 -508)"></path><path id="Path_9" data-name="Path 9" d="M3.5,2A1.5,1.5,0,0,0,2,3.5V4H5V3.5A1.5,1.5,0,0,0,3.5,2m0-2A3.5,3.5,0,0,1,7,3.5V6H0V3.5A3.5,3.5,0,0,1,3.5,0Z" transform="translate(25 4)"></path><path id="Path_10" data-name="Path 10" d="M5,2A3,3,0,0,0,2,5v5H9V5A3,3,0,0,0,6,2H5M5,0H6a5,5,0,0,1,5,5v7H0V5A5,5,0,0,1,5,0Z" transform="translate(36 8)"></path><path id="Path_2" data-name="Path 2" d="M952.315,513.545a1,1,0,0,1-1-1v-2.113a1,1,0,0,1,2,0v2.113A1,1,0,0,1,952.315,513.545Z" transform="translate(-910.815 -508)"></path><path id="Path_11" data-name="Path 11" d="M3.5,2A1.5,1.5,0,0,0,2,3.5V4H5V3.5A1.5,1.5,0,0,0,3.5,2m0-2A3.5,3.5,0,0,1,7,3.5V6H0V3.5A3.5,3.5,0,0,1,3.5,0Z" transform="translate(38 4)"></path><path id="Path_3" data-name="Path 3" d="M1000.937,572.8H992.9a1,1,0,0,1-1-1V547.383h2V570.8h6.04V547.383h2V571.8A1,1,0,0,1,1000.937,572.8Z" transform="translate(-924 -508)"></path><path id="Path_4" data-name="Path 4" d="M1000.937,572.8H992.9a1,1,0,0,1-1-1V547.383h2V570.8h6.04V557.5h2v14.3A1,1,0,0,1,1000.937,572.8Z" transform="translate(-985 -508)"></path><path id="Path_12" data-name="Path 12" d="M2,2V9H59V2H2M0,0H61V11H0Z" transform="translate(23 29)"></path><path id="Path_13" data-name="Path 13" d="M2,2V9H14V2H2M0,0H16V11H0Z" transform="translate(2 29)"></path><path id="Path_5" data-name="Path 5" d="M941.279,558.642a4.684,4.684,0,0,1-3.771-1.99,4.261,4.261,0,0,1-.316-4.38c1.892-3.987,2.989-5.921,3.035-6l1.738.99h0c-.016.029-1.115,1.969-2.966,5.869a2.245,2.245,0,0,0,.146,2.374,2.658,2.658,0,0,0,2.34,1.128,2.268,2.268,0,0,0,1.837-1.5c1.946-4.355,4.071-8.754,4.092-8.8l1.8.87c-.021.044-2.133,4.417-4.067,8.743a4.213,4.213,0,0,1-3.472,2.679Q941.479,558.642,941.279,558.642Z" transform="translate(-924 -508)"></path><path id="Path_6" data-name="Path 6" d="M940,539.3c0-.04-.03-4.039,0-8.3a4.46,4.46,0,0,1,1.386-3.348c1.847-1.743,4.906-1.679,5.26-1.665h29.408c4.532.088,8.713,3.127,9.846,4.02h14.262a8.9,8.9,0,0,1,4.768,1.236c2.048,1.346,3.083,3.691,3.075,6.969l-2,0c.013-5.511-3.335-6.179-5.856-6.2h-14.6a1,1,0,0,1-.648-.239c-.043-.036-4.4-3.688-8.872-3.781H946.574a5.953,5.953,0,0,0-3.819,1.125,2.5,2.5,0,0,0-.754,1.9c-.03,4.247,0,8.232,0,8.271Z" transform="translate(-924 -508)"></path></g></svg>